<svg viewBox="0 0 14 14" fill="none" xmlns="http://www.w3.org/2000/svg">
<g clip-path="url(#clip0_17_151)">
<path d="M1.23999 6.54L12.74 1.31" stroke="#1C1917" stroke-linecap="round" stroke-linejoin="round"/>
<path d="M10.59 0.5L12.74 1.31L11.94 3.46" stroke="#1C1917" stroke-linecap="round" stroke-linejoin="round"/>
<path d="M13.25 13.51H10.75V6.51C10.75 6.37739 10.8027 6.25022 10.8964 6.15645C10.9902 6.06268 11.1174 6.01 11.25 6.01H12.75C12.8826 6.01 13.0098 6.06268 13.1036 6.15645C13.1973 6.25022 13.25 6.37739 13.25 6.51V13.51Z" stroke="#1C1917" stroke-linecap="round" stroke-linejoin="round"/>
<path d="M8.25 13.51H5.75L5.75 8.01C5.75 7.87739 5.80268 7.75022 5.89645 7.65645C5.99021 7.56268 6.11739 7.51 6.25 7.51H7.75C7.88261 7.51 8.00979 7.56268 8.10355 7.65645C8.19732 7.75022 8.25 7.87739 8.25 8.01V13.51Z" stroke="#1C1917" stroke-linecap="round" stroke-linejoin="round"/>
<path d="M3.25 13.51H0.75L0.75 9.51C0.75 9.37739 0.802679 9.25022 0.896447 9.15645C0.990215 9.06268 1.11739 9.01 1.25 9.01H2.75C2.88261 9.01 3.00979 9.06268 3.10355 9.15645C3.19732 9.25022 3.25 9.37739 3.25 9.51L3.25 13.51Z" stroke="#1C1917" stroke-linecap="round" stroke-linejoin="round"/>
</g>
<defs>
<clipPath id="clip0_17_151">
<rect width="14" height="14" fill="white"/>
</clipPath>
</defs>
</svg>
