<svg viewBox="0 0 14 13" fill="none" xmlns="http://www.w3.org/2000/svg">
<g clip-path="url(#clip0_16_134)">
<path d="M3 12.3036V5.33929" stroke="#1C1917" stroke-linecap="round" stroke-linejoin="round"/>
<path d="M5.5 12.3036V7.19643" stroke="#1C1917" stroke-linecap="round" stroke-linejoin="round"/>
<path d="M8.5 12.3036V7.19643" stroke="#1C1917" stroke-linecap="round" stroke-linejoin="round"/>
<path d="M11 12.3036V5.33929" stroke="#1C1917" stroke-linecap="round" stroke-linejoin="round"/>
<path d="M11 0.696427H3.00001C2.54923 0.696211 2.10677 0.809175 1.71948 1.02336C1.33218 1.23755 1.01446 1.54499 0.799944 1.91313C0.585427 2.28128 0.482097 2.69643 0.500893 3.11465C0.519689 3.53287 0.659911 3.93858 0.906716 4.28885C1.15352 4.63912 1.49772 4.92091 1.90289 5.10439C2.30806 5.28786 2.75911 5.3662 3.2083 5.33111C3.6575 5.29602 4.08811 5.1488 4.45457 4.90505C4.82103 4.66129 5.10969 4.33006 5.29001 3.94643H8.71001C8.89032 4.33006 9.17898 4.66129 9.54544 4.90505C9.9119 5.1488 10.3425 5.29602 10.7917 5.33111C11.2409 5.3662 11.692 5.28786 12.0971 5.10439C12.5023 4.92091 12.8465 4.63912 13.0933 4.28885C13.3401 3.93858 13.4803 3.53287 13.4991 3.11465C13.5179 2.69643 13.4146 2.28128 13.2001 1.91313C12.9856 1.54499 12.6678 1.23755 12.2805 1.02336C11.8932 0.809175 11.4508 0.696211 11 0.696427V0.696427Z" stroke="#1C1917" stroke-linecap="round" stroke-linejoin="round"/>
</g>
<defs>
<clipPath id="clip0_16_134">
<rect width="14" height="13" fill="white"/>
</clipPath>
</defs>
</svg>
