<svg viewBox="0 0 14 14" fill="none" xmlns="http://www.w3.org/2000/svg">
<g clip-path="url(#clip0_23_317)">
<path d="M12.64 1.86999L11.8 4.34999C11.771 4.40735 11.7559 4.47072 11.7559 4.53499C11.7559 4.59927 11.771 4.66264 11.8 4.71999L13.37 6.81999C13.4151 6.8801 13.4424 6.9517 13.4487 7.0266C13.455 7.10149 13.4401 7.17664 13.4056 7.24344C13.3712 7.31024 13.3186 7.36598 13.254 7.40428C13.1893 7.44258 13.1152 7.46189 13.04 7.45999H10.42C10.3558 7.46188 10.2928 7.47813 10.2357 7.50755C10.1786 7.53697 10.1288 7.57881 10.09 7.62999L8.63003 9.72999C8.5872 9.79138 8.52802 9.83952 8.4592 9.86894C8.39038 9.89836 8.31468 9.90789 8.24072 9.89643C8.16676 9.88497 8.09749 9.85299 8.0408 9.80412C7.98411 9.75525 7.94226 9.69146 7.92003 9.61999L7.14002 7.11999C7.12223 7.0582 7.08904 7.00193 7.04357 6.95645C6.99809 6.91098 6.94182 6.87779 6.88003 6.85999L4.38003 6.07999C4.30856 6.05776 4.24477 6.01591 4.1959 5.95922C4.14703 5.90253 4.11505 5.83326 4.10359 5.7593C4.09213 5.68534 4.10166 5.60964 4.13108 5.54082C4.1605 5.472 4.20864 5.41282 4.27003 5.36999L6.41002 3.85999C6.46121 3.82118 6.50305 3.77139 6.53247 3.71428C6.56189 3.65718 6.57814 3.59421 6.58002 3.52999V0.909995C6.58282 0.841179 6.60333 0.774251 6.63958 0.71569C6.67583 0.657129 6.72658 0.608919 6.78693 0.575728C6.84728 0.542538 6.91517 0.525491 6.98404 0.526238C7.0529 0.526986 7.12041 0.545502 7.18002 0.579995L9.28003 2.14999C9.33334 2.18702 9.39468 2.21086 9.459 2.21956C9.52333 2.22825 9.5888 2.22154 9.65002 2.19999L12.13 1.35999C12.2011 1.335 12.2779 1.33061 12.3514 1.34734C12.4249 1.36406 12.4922 1.40122 12.5455 1.45452C12.5988 1.50783 12.636 1.57512 12.6527 1.64863C12.6694 1.72213 12.665 1.79887 12.64 1.86999V1.86999Z" stroke="#000001" stroke-linecap="round" stroke-linejoin="round"/>
<path d="M7.04 6.95999L0.5 13.5" stroke="#000001" stroke-linecap="round" stroke-linejoin="round"/>
</g>
<defs>
<clipPath id="clip0_23_317">
<rect width="14" height="14" fill="white"/>
</clipPath>
</defs>
</svg>
