<svg xmlns="http://www.w3.org/2000/svg" viewBox="0 0 100 120" fill="none"><path fill="url(#a)" d="M0 111.169V82.831a5 5 0 0 1 2.428-4.288l45-27a5 5 0 0 1 5.145 0l45 27A5 5 0 0 1 100 82.831v28.338c0 3.887-4.24 6.287-7.573 4.288L52.572 91.544a5 5 0 0 0-5.145 0L7.573 115.456C4.24 117.456 0 115.056 0 111.169Z"/><path fill="url(#b)" d="M0 61.169V32.831a5 5 0 0 1 2.428-4.288l45-27a5 5 0 0 1 5.145 0l45 27A5 5 0 0 1 100 32.832v28.338c0 3.886-4.24 6.287-7.573 4.288L52.572 41.544a5 5 0 0 0-5.145 0L7.573 65.457C4.24 67.457 0 65.056 0 61.169Z"/><defs><linearGradient id="a" x1="21.649" x2="56.813" y1="47.958" y2="177.593" gradientUnits="userSpaceOnUse"><stop offset=".125" stop-color="#FF7C2E"/><stop offset="1" stop-color="#FFDF38" stop-opacity="0"/></linearGradient><linearGradient id="b" x1="21.649" x2="56.813" y1="-2.042" y2="127.593" gradientUnits="userSpaceOnUse"><stop offset=".125" stop-color="#FF7C2E"/><stop offset="1" stop-color="#FFDF38" stop-opacity="0"/></linearGradient></defs></svg>